<svg width="45" height="45" viewBox="0 0 45 45" fill="none" xmlns="http://www.w3.org/2000/svg">
<path d="M38.474 8.59391C38.474 9.8233 37.9856 11.0023 37.1163 11.8716C36.247 12.741 35.0679 13.2293 33.8385 13.2293C32.6092 13.2293 31.4301 12.741 30.5608 11.8716C29.6915 11.0023 29.2031 9.8233 29.2031 8.59391C29.2031 7.36452 29.6915 6.18549 30.5608 5.31618C31.4301 4.44687 32.6092 3.9585 33.8385 3.9585C35.0679 3.9585 36.247 4.44687 37.1163 5.31618C37.9856 6.18549 38.474 7.36452 38.474 8.59391Z" fill="#8ABAB1"/>
<path fill-rule="evenodd" clip-rule="evenodd" d="M24.9145 12.6005L24.9237 12.606C27.1343 13.5067 28.9442 15.1769 30.019 17.3082C30.5905 18.4496 31.4682 19.4094 32.5541 20.0803C33.6399 20.7513 34.891 21.1069 36.1674 21.1074H38.4759C38.8447 21.1074 39.1984 21.2539 39.4592 21.5147C39.72 21.7755 39.8665 22.1292 39.8665 22.498C39.8665 22.8668 39.72 23.2206 39.4592 23.4813C39.1984 23.7421 38.8447 23.8886 38.4759 23.8886H36.1674C34.3744 23.8883 32.6169 23.389 31.0915 22.4465C29.5662 21.5041 28.3333 20.1557 27.5307 18.5524C26.7573 17.0213 25.4558 15.822 23.8669 15.1759C21.3378 14.1339 20.5368 13.8409 19.009 13.9522C16.8896 14.1061 14.9428 15.1759 10.3036 17.8125L7.64292 19.3237C7.48416 19.414 7.30916 19.4722 7.12792 19.4949C6.94668 19.5176 6.76274 19.5044 6.5866 19.456C6.23088 19.3583 5.92854 19.1233 5.7461 18.8027C5.65577 18.6439 5.59759 18.4689 5.57488 18.2877C5.55217 18.1064 5.56539 17.9225 5.61377 17.7464C5.71148 17.3906 5.9465 17.0883 6.26712 16.9059L8.92971 15.3947L9.24862 15.213C13.465 12.8156 15.9867 11.3823 18.8069 11.1783C21.0652 11.0133 22.4299 11.577 24.9163 12.5986M24.6716 19.7094C24.7946 19.8445 24.8898 20.0025 24.9518 20.1744C25.0137 20.3463 25.0412 20.5287 25.0326 20.7113C25.024 20.8938 24.9795 21.0729 24.9016 21.2382C24.8238 21.4035 24.7141 21.5519 24.5789 21.6748L23.5869 22.5611C23.0677 23.0246 22.5653 23.4696 22.1073 23.9035C21.8021 24.186 21.5106 24.483 21.234 24.7935C21.1347 24.9017 21.0442 25.0177 20.9632 25.1402C20.8554 25.4311 20.8071 25.7406 20.8211 26.0505C20.8351 26.3604 20.9112 26.6644 21.0448 26.9443C21.1227 27.1093 21.2859 27.3337 21.7179 27.7194C22.1592 28.1124 22.7711 28.5778 23.674 29.262L23.8131 29.3659C24.8514 30.1539 25.5727 30.699 26.1197 31.3869C26.7279 32.1527 27.1673 33.0371 27.4102 33.9846C27.629 34.8375 27.629 35.7405 27.629 37.044V41.0415C27.629 41.4104 27.4825 41.7641 27.2217 42.0249C26.9609 42.2857 26.6072 42.4322 26.2384 42.4322C25.8695 42.4322 25.5158 42.2857 25.255 42.0249C24.9942 41.7641 24.8477 41.4104 24.8477 41.0415V37.2201C24.8477 35.6756 24.8385 35.149 24.7179 34.6799C24.5722 34.1114 24.3081 33.58 23.9429 33.1205C23.6407 32.7404 23.2253 32.4123 21.996 31.4815L21.9515 31.4462C21.238 30.9224 20.5435 30.3732 19.8693 29.7997C19.3186 29.3102 18.8439 28.7929 18.5343 28.1421C18.2407 27.5263 18.0736 26.8578 18.0431 26.1762C18.0125 25.4946 18.119 24.8138 18.3563 24.1742C18.5269 23.7144 18.8569 23.2916 19.1332 22.9745C19.4354 22.6241 19.8081 22.2514 20.1956 21.8861C20.6777 21.43 21.2432 20.9257 21.7921 20.4362C22.111 20.1544 22.4225 19.8762 22.7062 19.6166C22.8413 19.4936 22.9993 19.3984 23.1712 19.3364C23.3431 19.2745 23.5256 19.2471 23.7081 19.2557C23.8906 19.2643 24.0697 19.3088 24.235 19.3866C24.4003 19.4645 24.5487 19.5741 24.6716 19.7094ZM17.114 30.7027C17.3972 30.9388 17.575 31.2777 17.6083 31.6449C17.6417 32.012 17.5279 32.3774 17.292 32.6607L15.4378 34.8876L15.258 35.1026C14.0676 36.5322 13.1943 37.5835 11.9742 38.1546C10.7542 38.7257 9.38769 38.7257 7.52425 38.7238H5.099C4.73018 38.7238 4.37647 38.5773 4.11568 38.3165C3.85489 38.0557 3.70837 37.702 3.70837 37.3332C3.70837 36.9644 3.85489 36.6107 4.11568 36.3499C4.37647 36.0891 4.73018 35.9426 5.099 35.9426H7.24612C9.51192 35.9426 10.2054 35.9111 10.7931 35.6366C11.3828 35.3604 11.85 34.8468 13.3 33.1076L15.1541 30.8807C15.2711 30.7402 15.4145 30.6242 15.5764 30.5392C15.7382 30.4542 15.9152 30.402 16.0972 30.3854C16.2792 30.3689 16.4627 30.3884 16.6372 30.4429C16.8116 30.4973 16.9737 30.5856 17.114 30.7027Z" fill="#8ABAB1"/>
</svg>
