<svg width="45" height="45" viewBox="0 0 45 45" fill="none" xmlns="http://www.w3.org/2000/svg">
<path fill-rule="evenodd" clip-rule="evenodd" d="M22.125 41.7917C32.9871 41.7917 41.7917 32.9871 41.7917 22.125C41.7917 11.2629 32.9871 2.45833 22.125 2.45833C11.2629 2.45833 2.45833 11.2629 2.45833 22.125C2.45833 32.9871 11.2629 41.7917 22.125 41.7917ZM22.125 44.25C34.3441 44.25 44.25 34.3441 44.25 22.125C44.25 9.90585 34.3441 0 22.125 0C9.90585 0 0 9.90585 0 22.125C0 34.3441 9.90585 44.25 22.125 44.25Z" fill="#8ABAB1"/>
<path fill-rule="evenodd" clip-rule="evenodd" d="M13.1459 27.0418C15.0573 31.752 18.5789 34.4168 22.125 34.4168C25.6724 34.4168 29.1927 31.752 31.1041 27.0418H13.1459ZM22.125 36.8752C17.1616 36.8752 12.8595 33.1287 10.7454 27.6564L10.6839 27.4979C10.1357 26.0339 11.3083 24.5835 12.8731 24.5835H31.3782C32.9429 24.5835 34.1167 26.0339 33.5661 27.4979L33.5059 27.6564C31.3905 33.1287 27.0884 36.8752 22.125 36.8752Z" fill="#8ABAB1"/>
<path d="M18.8087 20.2097C18.9684 19.7697 18.9205 19.2325 18.789 18.7433C18.63 18.1802 18.3765 17.6481 18.0392 17.17C17.3251 16.151 16.1414 15.2156 14.5422 15.1468C12.8865 15.0779 11.65 16.1289 10.8879 17.2437C10.5225 17.7807 10.2348 18.3667 10.0336 18.9842C9.85787 19.5324 9.76445 20.0929 9.82591 20.5416C9.84003 20.6439 9.8797 20.741 9.94126 20.8239C10.0028 20.9068 10.0843 20.9728 10.1781 21.016C10.2719 21.0591 10.3751 21.0779 10.4781 21.0706C10.5811 21.0633 10.6806 21.0301 10.7674 20.9742C11.2591 20.6596 11.7741 20.2281 12.2511 19.8299C12.4674 19.648 12.6776 19.4734 12.8718 19.3198C13.5626 18.774 14.1009 18.4631 14.5459 18.4409C14.97 18.42 15.4592 18.6622 16.0762 19.1243C16.2975 19.2891 16.5113 19.4636 16.7326 19.6455L16.9723 19.8409C17.2722 20.0831 17.5918 20.3314 17.9138 20.5256C17.9915 20.5724 18.0786 20.6015 18.1688 20.6107C18.2591 20.6199 18.3503 20.609 18.4358 20.5788C18.5213 20.5486 18.5991 20.4999 18.6636 20.4361C18.7281 20.3722 18.7776 20.2949 18.8087 20.2097ZM25.3368 20.2097C25.177 19.7697 25.2261 19.2325 25.3577 18.7433C25.4953 18.232 25.7498 17.6825 26.1074 17.17C26.8204 16.151 28.0053 15.2156 29.6044 15.1468C31.2589 15.0779 32.4967 16.1289 33.2587 17.2437C33.6447 17.8091 33.9323 18.4213 34.113 18.9842C34.2876 19.5324 34.381 20.0929 34.3195 20.5416C34.3053 20.6437 34.2656 20.7406 34.2041 20.8233C34.1427 20.9061 34.0614 20.972 33.9677 21.0151C33.8741 21.0582 33.7711 21.077 33.6682 21.0699C33.5654 21.0628 33.466 21.0299 33.3792 20.9742C32.8875 20.6596 32.3713 20.2281 31.8956 19.8299C31.6909 19.6572 31.484 19.4871 31.2749 19.3198C30.5828 18.774 30.0457 18.4631 29.5995 18.4409C29.1767 18.42 28.6862 18.6622 28.0704 19.1243C27.8492 19.2891 27.6353 19.4636 27.4141 19.6455L27.1731 19.8409C26.8755 20.0901 26.5613 20.3188 26.2328 20.5256C26.1551 20.5727 26.0679 20.6019 25.9775 20.6113C25.8871 20.6206 25.7958 20.6097 25.7101 20.5795C25.6244 20.5493 25.5465 20.5005 25.4819 20.4365C25.4173 20.3726 25.3678 20.2951 25.3368 20.2097Z" fill="#8ABAB1"/>
</svg>
