<svg width="34" height="34" viewBox="0 0 34 34" fill="none" xmlns="http://www.w3.org/2000/svg">
<path d="M7.23881 2.5564L5.74281 4.05027L7.96875 6.27515L9.46263 4.78127L7.23881 2.5564ZM26.7622 2.5564L24.5363 4.78127L26.0312 6.27515L28.2561 4.05133L26.7622 2.5564ZM17 3.2194C16.6494 3.22223 16.2952 3.2449 15.9375 3.2874H15.9056C11.5961 3.78146 8.16638 7.26327 7.57031 11.5536C7.09431 15.0068 8.51806 18.138 10.8906 20.1546C11.861 20.983 12.5174 22.1195 12.75 23.374V29.749H15.1725C15.5422 30.3833 16.2169 30.8115 17 30.8115C17.7831 30.8115 18.4577 30.3833 18.8275 29.749H21.25V25.499H21.3499V24.2367C21.3499 22.6791 22.1595 21.1087 23.4749 19.8879C25.2344 18.1263 26.5625 15.6241 26.5625 12.75C26.5625 7.50127 22.2424 3.17052 17 3.2194ZM17 5.3444C21.1066 5.28702 24.4375 8.64877 24.4375 12.75C24.4375 14.9749 23.4069 16.9341 21.9799 18.36L22.0139 18.394C20.5965 19.7021 19.6796 21.4636 19.4214 23.375H14.7741C14.5403 21.5539 13.7594 19.7912 12.2836 18.5268C10.4061 16.9331 9.28731 14.5318 9.66131 11.8203C10.1256 8.47346 12.8414 5.78215 16.1691 5.41346C16.4439 5.37536 16.7206 5.35265 16.9979 5.34546L17 5.3444ZM2.125 12.75V14.875H5.3125V12.75H2.125ZM28.6875 12.75V14.875H31.875V12.75H28.6875ZM7.96875 21.3499L5.74388 23.5737L7.23881 25.0686L9.46156 22.8438L7.96875 21.3499ZM26.0312 21.3499L24.5374 22.8438L26.7612 25.0686L28.2561 23.5737L26.0312 21.3499ZM14.875 25.5H19.125V27.625H14.875V25.5Z" fill="white"/>
</svg>
