<svg width="31" height="31" viewBox="0 0 31 31" fill="none" xmlns="http://www.w3.org/2000/svg">
<path d="M25.825 5.04232C24.4725 3.67663 22.8617 2.59378 21.0865 1.85686C19.3114 1.11995 17.4073 0.743712 15.4852 0.750079C7.43174 0.750079 0.868 7.31382 0.868 15.3673C0.868 17.9486 1.5465 20.4561 2.815 22.6686L0.75 30.25L8.49374 28.2145C10.6325 29.3798 13.0367 29.9993 15.4852 29.9993C23.5387 29.9993 30.1025 23.4356 30.1025 15.3821C30.1025 11.4733 28.5832 7.80057 25.825 5.04232ZM15.4852 27.5213C13.3022 27.5213 11.1635 26.9313 9.29024 25.825L8.84774 25.5595L4.24575 26.769L5.46999 22.2851L5.17499 21.8278C3.96188 19.8912 3.31786 17.6525 3.3165 15.3673C3.3165 8.67082 8.77399 3.21333 15.4705 3.21333C18.7155 3.21333 21.7687 4.48183 24.055 6.78282C25.1872 7.90952 26.0844 9.24982 26.6947 10.726C27.3049 12.2021 27.6159 13.7848 27.6097 15.3821C27.6392 22.0786 22.1817 27.5213 15.4852 27.5213ZM22.1522 18.4353C21.7835 18.2583 19.984 17.3733 19.6595 17.2406C19.3202 17.1226 19.0842 17.0636 18.8335 17.4176C18.5827 17.7863 17.8895 18.6123 17.683 18.8483C17.4765 19.0991 17.2552 19.1286 16.8865 18.9368C16.5177 18.7598 15.3377 18.3616 13.9512 17.1226C12.8597 16.1491 12.137 14.9543 11.9157 14.5856C11.7092 14.2168 11.8862 14.0251 12.078 13.8333C12.2402 13.6711 12.4467 13.4056 12.6237 13.1991C12.8007 12.9926 12.8745 12.8303 12.9925 12.5943C13.1105 12.3436 13.0515 12.1371 12.963 11.9601C12.8745 11.7831 12.137 9.98357 11.842 9.24607C11.547 8.53807 11.2372 8.62657 11.016 8.61182H10.308C10.0572 8.61182 9.67374 8.70032 9.33449 9.06907C9.00999 9.43782 8.06599 10.3228 8.06599 12.1223C8.06599 13.9218 9.37874 15.6623 9.55574 15.8983C9.73274 16.1491 12.137 19.8366 15.795 21.4148C16.6652 21.7983 17.3437 22.0196 17.8747 22.1818C18.745 22.4621 19.5415 22.4178 20.1757 22.3293C20.8837 22.2261 22.344 21.4443 22.639 20.5888C22.9487 19.7333 22.9487 19.0106 22.8455 18.8483C22.7422 18.6861 22.521 18.6123 22.1522 18.4353Z" fill="#14AE5C"/>
</svg>
