<svg width="155" height="46" viewBox="0 0 155 46" fill="none" xmlns="http://www.w3.org/2000/svg">
<path d="M4.15083 36.0333L1.57948 14.8814H4.1363L5.66167 29.4669L5.74884 30.3095L5.90864 29.4378L8.46546 14.8814H10.8044L13.3757 29.4524L13.5355 30.3095L13.6227 29.4378L15.1481 14.8814H17.6903L15.119 36.0333H12.3733L9.80198 20.9829L9.6567 20.0967L9.4969 20.9974L6.91103 36.0333H4.15083ZM31.2444 36.0333C31.1378 35.8299 31.0507 35.5781 30.9829 35.2778C30.9248 34.9679 30.8812 34.6483 30.8521 34.319C30.581 34.5902 30.2759 34.8469 29.9369 35.089C29.6076 35.3311 29.2444 35.5442 28.8474 35.7282C28.4406 35.9122 28.0096 36.0575 27.5544 36.164C27.0992 36.2705 26.615 36.3238 26.1017 36.3238C25.2688 36.3238 24.5134 36.2028 23.8354 35.9606C23.1672 35.7185 22.6006 35.3892 22.1357 34.9728C21.6612 34.566 21.2931 34.0818 21.0316 33.52C20.7798 32.9486 20.6539 32.3336 20.6539 31.6751C20.6539 30.8131 20.8234 30.0577 21.1624 29.4088C21.511 28.7599 22.0001 28.2175 22.6296 27.7817C23.2592 27.3556 24.0146 27.036 24.8959 26.8229C25.7869 26.6098 26.7796 26.5033 27.874 26.5033H30.8086V25.2685C30.8086 24.7939 30.7214 24.3678 30.5471 23.9901C30.3727 23.6124 30.1258 23.2879 29.8062 23.0167C29.4866 22.7552 29.0943 22.5519 28.6295 22.4066C28.1743 22.2613 27.661 22.1887 27.0896 22.1887C26.5569 22.1887 26.0775 22.2565 25.6513 22.3921C25.2349 22.5276 24.8814 22.7068 24.5908 22.9296C24.3003 23.1523 24.0727 23.4187 23.9081 23.7286C23.7531 24.0288 23.6756 24.3436 23.6756 24.6729H20.9735C20.9832 24.1014 21.1285 23.5397 21.4093 22.9877C21.6999 22.4356 22.1163 21.9369 22.6587 21.4914C23.1914 21.0555 23.8403 20.702 24.6054 20.4309C25.3802 20.1597 26.2567 20.0241 27.2348 20.0241C28.1258 20.0241 28.9539 20.1355 29.719 20.3582C30.4841 20.5713 31.1475 20.8957 31.7093 21.3316C32.2613 21.7771 32.6971 22.3291 33.0167 22.9877C33.3363 23.6463 33.4961 24.4162 33.4961 25.2975V32.6048C33.4961 33.1278 33.5446 33.6847 33.6414 34.2755C33.7383 34.8565 33.8738 35.365 34.0482 35.8008V36.0333H31.2444ZM26.4939 33.9849C27.0169 33.9849 27.506 33.9171 27.9612 33.7815C28.4164 33.6459 28.8328 33.4668 29.2106 33.244C29.5786 33.0213 29.8982 32.7694 30.1694 32.4886C30.4405 32.198 30.6536 31.8978 30.8086 31.5879V28.4064H28.3099C27.3801 28.4064 26.5666 28.4887 25.8693 28.6534C25.1816 28.8083 24.6344 29.0504 24.2277 29.3797C23.9371 29.6122 23.7144 29.8882 23.5594 30.2078C23.4141 30.5274 23.3415 30.8906 23.3415 31.2973C23.3415 31.6847 23.4044 32.0431 23.5303 32.3724C23.6659 32.7017 23.8645 32.9825 24.126 33.215C24.3875 33.4571 24.7167 33.6459 25.1138 33.7815C25.5109 33.9171 25.9709 33.9849 26.4939 33.9849ZM39.2054 20.3146H47.239V33.7089H52.3672V36.0333H39.2054V33.7089H44.5515V22.6536H39.2054V20.3146ZM44.2028 16.1889C44.2028 15.9564 44.2367 15.7385 44.3045 15.5351C44.382 15.3318 44.4982 15.1574 44.6532 15.0122C44.7791 14.8862 44.9389 14.7894 45.1326 14.7216C45.3359 14.6441 45.5635 14.6054 45.8153 14.6054C46.0672 14.6054 46.2899 14.6441 46.4836 14.7216C46.6773 14.7894 46.8371 14.8862 46.963 15.0122C47.118 15.1477 47.2342 15.3172 47.3117 15.5206C47.3891 15.724 47.4279 15.9467 47.4279 16.1889C47.4279 16.6247 47.2923 16.9879 47.0211 17.2784C46.7499 17.569 46.348 17.7142 45.8153 17.7142C45.273 17.7142 44.8662 17.569 44.595 17.2784C44.3336 16.9879 44.2028 16.6247 44.2028 16.1889ZM63.0158 16.5085V20.3146H69.001V22.3921H63.0158V30.9342C63.0158 31.5443 63.0932 32.0479 63.2482 32.445C63.4032 32.8421 63.6162 33.1568 63.8874 33.3893C64.1586 33.6314 64.4685 33.8009 64.8171 33.8977C65.1755 33.9946 65.5532 34.043 65.9503 34.043C66.2408 34.043 66.5411 34.0285 66.851 33.9994C67.1609 33.9607 67.466 33.9171 67.7662 33.8687C68.0568 33.8203 68.3279 33.7718 68.5797 33.7234C68.8412 33.6653 69.0543 33.6169 69.2189 33.5781L69.5967 35.4812C69.3739 35.6168 69.1027 35.7379 68.7831 35.8444C68.4635 35.9413 68.1149 36.0236 67.7372 36.0914C67.3594 36.1689 66.9575 36.227 66.5314 36.2657C66.1149 36.3044 65.6985 36.3238 65.282 36.3238C64.5847 36.3238 63.931 36.227 63.3208 36.0333C62.7204 35.8299 62.1974 35.5103 61.7519 35.0745C61.3064 34.6483 60.9529 34.0963 60.6914 33.4183C60.4396 32.7307 60.3137 31.9026 60.3137 30.9342V22.3921H56.1879V20.3146H60.3137V16.5085H63.0158ZM81.4655 36.3238C80.3614 36.3238 79.3445 36.135 78.4148 35.7572C77.4947 35.3795 76.7054 34.8517 76.0468 34.1738C75.3882 33.4958 74.8749 32.692 74.5069 31.7622C74.1389 30.8325 73.9549 29.8204 73.9549 28.726V28.1158C73.9549 26.8471 74.1583 25.714 74.565 24.7164C74.9718 23.7092 75.5141 22.8569 76.1921 22.1596C76.8603 21.472 77.6206 20.9442 78.4729 20.5761C79.3348 20.2081 80.2162 20.0241 81.1169 20.0241C82.25 20.0241 83.2379 20.2226 84.0805 20.6197C84.9327 21.0071 85.6397 21.5446 86.2014 22.2323C86.7632 22.9296 87.1796 23.7479 87.4508 24.6874C87.7317 25.6268 87.8721 26.6437 87.8721 27.7381V28.9439H76.6424V29.0456C76.7102 29.8107 76.8603 30.4838 77.0928 31.0649C77.3349 31.646 77.6642 32.1593 78.0806 32.6048C78.5068 33.0794 79.0201 33.4522 79.6205 33.7234C80.221 33.9946 80.8844 34.1302 81.6108 34.1302C82.5696 34.1302 83.4219 33.9365 84.1676 33.5491C84.9134 33.1617 85.5332 32.6484 86.0271 32.0092L87.6687 33.2876C87.1457 34.0818 86.3613 34.7888 85.3153 35.4086C84.279 36.0187 82.9957 36.3238 81.4655 36.3238ZM81.1169 22.2323C80.5745 22.2323 80.0612 22.3339 79.577 22.5373C79.0927 22.731 78.6569 23.0167 78.2695 23.3944C77.8821 23.7818 77.5528 24.2564 77.2816 24.8181C77.0201 25.3702 76.8361 26.0094 76.7296 26.7357H85.1845V26.605C85.1845 26.1208 85.0925 25.6026 84.9085 25.0506C84.7245 24.4888 84.4678 24.0046 84.1386 23.5978C83.8093 23.1911 83.3928 22.8618 82.8892 22.61C82.3953 22.3582 81.8045 22.2323 81.1169 22.2323ZM102.69 20.0241C103.184 20.0241 103.697 20.058 104.23 20.1258C104.772 20.1936 105.179 20.2856 105.45 20.4018L105.087 23.0313C104.564 22.915 104.065 22.8327 103.591 22.7843C103.126 22.7262 102.637 22.6971 102.123 22.6971C101.465 22.6971 100.869 22.7795 100.337 22.9441C99.8039 23.0991 99.339 23.3315 98.942 23.6414C98.5836 23.9126 98.2689 24.2467 97.9977 24.6438C97.7362 25.0312 97.5183 25.467 97.3439 25.9513V36.0333H94.6419V20.3146H97.1987L97.3149 22.4211L97.3294 22.8134C97.9686 21.9514 98.7337 21.2734 99.6247 20.7795C100.525 20.2759 101.547 20.0241 102.69 20.0241Z" fill="white"/>
<path d="M118.662 32.7811H149.654M120.212 32.7811L121.174 36.6319C121.342 37.3023 121.729 37.8975 122.273 38.3229C122.818 38.7483 123.489 38.9794 124.18 38.9795H144.134C144.825 38.9794 145.497 38.7483 146.041 38.3229C146.586 37.8975 146.973 37.3023 147.141 36.6319L148.104 32.7811" stroke="white" stroke-width="1.8595" stroke-linecap="round" stroke-linejoin="round"/>
<path d="M127.185 21.1593H128.735V22.7089H127.185V21.1593ZM133.383 16.5105H134.933V19.6097H133.383V16.5105ZM131.834 21.1593H134.933V24.2585H133.383V22.7089H131.834V21.1593ZM136.482 21.1593H138.032V22.7089H139.582V21.1593H141.131V22.7089H139.582V24.2585H141.131V27.3576H139.582V28.9072H138.032V27.3576H134.933V28.9072H133.383V25.808H136.482V24.2585H138.032V22.7089H136.482V21.1593ZM139.582 27.3576V24.2585H138.032V27.3576H139.582ZM136.482 14.9609H141.131V19.6097H136.482V14.9609ZM138.032 16.5105V18.0601H139.582V16.5105H138.032ZM127.185 14.9609H131.834V19.6097H127.185V14.9609ZM128.735 16.5105V18.0601H130.284V16.5105H128.735ZM127.185 24.2585H131.834V28.9072H127.185V24.2585ZM128.735 25.808V27.3576H130.284V25.808H128.735Z" fill="white"/>
<path d="M148.797 4.732L149.811 3.52358L148.031 2.0295C147.873 1.89741 147.775 1.7082 147.757 1.5035C147.739 1.29879 147.803 1.09535 147.935 0.937941C148.067 0.780528 148.256 0.682034 148.461 0.664124C148.666 0.646215 148.869 0.710358 149.027 0.842443L153.775 4.82666C153.932 4.95875 154.031 5.14796 154.049 5.35266C154.067 5.55737 154.003 5.7608 153.87 5.91822C153.738 6.07563 153.549 6.17413 153.344 6.19203C153.14 6.20994 152.936 6.1458 152.779 6.01372L150.998 4.51963L149.984 5.72805C151.055 6.76481 151.9 8.01104 152.468 9.38901C153.035 10.767 153.313 12.2471 153.283 13.7371C153.253 15.2271 152.917 16.6949 152.295 18.0491C151.672 19.4032 150.778 20.6146 149.667 21.6077L133.214 7.80241C133.999 6.53569 135.037 5.44432 136.262 4.59639C137.488 3.74846 138.875 3.16216 140.337 2.87407C141.799 2.58597 143.305 2.60226 144.761 2.92192C146.216 3.24158 147.59 3.85775 148.797 4.732ZM135.314 7.54169L149.559 19.4944C150.343 18.559 150.936 17.4783 151.304 16.3138C151.671 15.1494 151.805 13.924 151.698 12.7077C151.592 11.4914 151.247 10.3079 150.683 9.22491C150.12 8.14189 149.348 7.18053 148.413 6.39571C147.477 5.61089 146.397 5.01797 145.232 4.65082C144.068 4.28367 142.842 4.14947 141.626 4.25588C140.41 4.3623 139.226 4.70724 138.143 5.27102C137.06 5.8348 136.099 6.60638 135.314 7.54169Z" fill="white"/>
</svg>
